<svg width="76" height="49" viewBox="0 0 76 49" fill="none" xmlns="http://www.w3.org/2000/svg">
<path d="M20.1179 37.74C19.4279 37.74 19.0079 37.23 19.0079 36.57C19.0079 35.91 19.4279 35.41 20.1179 35.41C20.6179 35.41 20.9879 35.7 21.0679 36.14H22.5979C22.4879 34.89 21.4579 34.04 20.1179 34.04C18.5879 34.04 17.4679 35.1 17.4679 36.57C17.4679 38.05 18.5879 39.11 20.1179 39.11C21.4579 39.11 22.4879 38.26 22.5979 37.01H21.0679C20.9879 37.45 20.6179 37.74 20.1179 37.74ZM28.3287 34.15H26.7087V34.41C26.3487 34.18 25.9087 34.04 25.3787 34.04C24.0687 34.04 22.9687 35.12 22.9687 36.57C22.9687 38.01 24.0687 39.1 25.3787 39.1C25.9087 39.1 26.3487 38.96 26.7087 38.73V39H28.3287V34.15ZM25.6987 37.77C25.0387 37.77 24.5587 37.24 24.5587 36.57C24.5587 35.9 25.0387 35.36 25.6987 35.36C26.0587 35.36 26.4087 35.47 26.7087 35.82V37.32C26.4087 37.67 26.0587 37.77 25.6987 37.77ZM32.8389 37.54C32.4789 37.61 32.2089 37.66 31.9789 37.66C31.4989 37.66 31.2189 37.42 31.2189 36.93V35.54H32.8689V34.15H31.2189V32.5H29.5989V34.15H28.6489V35.54H29.5989V36.98C29.5989 38.29 30.3789 39.15 31.5489 39.15C32.0289 39.15 32.3889 39.11 33.0189 38.91L32.8389 37.54ZM38.2099 36.47C38.2099 35.01 37.1399 34.04 35.7299 34.04C34.1799 34.04 33.1499 35.1 33.1499 36.57C33.1499 38.05 34.2099 39.11 35.7999 39.11C36.9999 39.11 37.9299 38.48 38.1599 37.48H36.5599C36.4199 37.7 36.1599 37.83 35.8199 37.83C35.1999 37.83 34.8599 37.49 34.7299 37.05H38.1899L38.1799 37.02C38.2099 36.84 38.2099 36.65 38.2099 36.47ZM35.7299 35.29C36.2499 35.29 36.5999 35.57 36.6899 36.1H34.7099C34.8299 35.61 35.1799 35.29 35.7299 35.29ZM43.8845 34.15H42.2645V34.34C41.9045 34.12 41.4745 33.98 40.9445 33.98C39.6345 33.98 38.5345 34.99 38.5345 36.47C38.5345 37.78 39.6345 38.83 40.9445 38.83C41.4745 38.83 41.9045 38.7 42.2645 38.49V38.95C42.2645 39.61 41.8345 39.95 41.2845 39.95C40.6845 39.95 40.3445 39.67 40.2645 39.22H38.6645C38.7445 40.48 39.8145 41.32 41.2845 41.32C42.8045 41.32 43.8845 40.44 43.8845 38.92V34.15ZM41.2645 37.54C40.6045 37.54 40.1245 37 40.1245 36.47C40.1245 35.77 40.6045 35.3 41.2645 35.3C41.6145 35.3 41.9645 35.41 42.2645 35.75V37.09C41.9645 37.43 41.6145 37.54 41.2645 37.54ZM47.0745 34.04C45.5445 34.04 44.4445 35.11 44.4445 36.57C44.4445 38.05 45.5445 39.15 47.0745 39.15C48.6045 39.15 49.7045 38.05 49.7045 36.57C49.7045 35.11 48.6045 34.04 47.0745 34.04ZM47.0845 37.75C46.4245 37.75 45.9845 37.23 45.9845 36.58C45.9845 35.95 46.4245 35.44 47.0845 35.44C47.7345 35.44 48.1745 35.95 48.1745 36.58C48.1745 37.23 47.7345 37.75 47.0845 37.75ZM53.4943 34.07C52.7743 34.07 52.2543 34.3 51.8243 34.67V34.15H50.2043V39H51.8243V36.23C52.2043 35.85 52.7043 35.64 53.4943 35.61V34.07ZM59.6959 34.15H57.9959L56.7359 37.14L55.3459 34.15H53.6259L55.9259 39.06L55.0059 41.24H56.7059L59.6959 34.15Z" fill="white"/>
<rect x="30.5" y="11.5" width="6.11111" height="6.11111" stroke="white"/>
<rect x="30.5" y="20.3889" width="6.11111" height="6.11111" stroke="white"/>
<rect x="39.3887" y="11.5" width="6.11111" height="6.11111" stroke="white"/>
<rect x="39.3887" y="20.3889" width="6.11111" height="6.11111" stroke="white"/>
</svg>
