<svg width="76" height="49" viewBox="0 0 76 49" fill="none" xmlns="http://www.w3.org/2000/svg">
<path d="M20.1179 36.74C19.4279 36.74 19.0079 36.23 19.0079 35.57C19.0079 34.91 19.4279 34.41 20.1179 34.41C20.6179 34.41 20.9879 34.7 21.0679 35.14H22.5979C22.4879 33.89 21.4579 33.04 20.1179 33.04C18.5879 33.04 17.4679 34.1 17.4679 35.57C17.4679 37.05 18.5879 38.11 20.1179 38.11C21.4579 38.11 22.4879 37.26 22.5979 36.01H21.0679C20.9879 36.45 20.6179 36.74 20.1179 36.74ZM28.3287 33.15H26.7087V33.41C26.3487 33.18 25.9087 33.04 25.3787 33.04C24.0687 33.04 22.9687 34.12 22.9687 35.57C22.9687 37.01 24.0687 38.1 25.3787 38.1C25.9087 38.1 26.3487 37.96 26.7087 37.73V38H28.3287V33.15ZM25.6987 36.77C25.0387 36.77 24.5587 36.24 24.5587 35.57C24.5587 34.9 25.0387 34.36 25.6987 34.36C26.0587 34.36 26.4087 34.47 26.7087 34.82V36.32C26.4087 36.67 26.0587 36.77 25.6987 36.77ZM32.8389 36.54C32.4789 36.61 32.2089 36.66 31.9789 36.66C31.4989 36.66 31.2189 36.42 31.2189 35.93V34.54H32.8689V33.15H31.2189V31.5H29.5989V33.15H28.6489V34.54H29.5989V35.98C29.5989 37.29 30.3789 38.15 31.5489 38.15C32.0289 38.15 32.3889 38.11 33.0189 37.91L32.8389 36.54ZM38.2099 35.47C38.2099 34.01 37.1399 33.04 35.7299 33.04C34.1799 33.04 33.1499 34.1 33.1499 35.57C33.1499 37.05 34.2099 38.11 35.7999 38.11C36.9999 38.11 37.9299 37.48 38.1599 36.48H36.5599C36.4199 36.7 36.1599 36.83 35.8199 36.83C35.1999 36.83 34.8599 36.49 34.7299 36.05H38.1899L38.1799 36.02C38.2099 35.84 38.2099 35.65 38.2099 35.47ZM35.7299 34.29C36.2499 34.29 36.5999 34.57 36.6899 35.1H34.7099C34.8299 34.61 35.1799 34.29 35.7299 34.29ZM43.8845 33.15H42.2645V33.34C41.9045 33.12 41.4745 32.98 40.9445 32.98C39.6345 32.98 38.5345 33.99 38.5345 35.47C38.5345 36.78 39.6345 37.83 40.9445 37.83C41.4745 37.83 41.9045 37.7 42.2645 37.49V37.95C42.2645 38.61 41.8345 38.95 41.2845 38.95C40.6845 38.95 40.3445 38.67 40.2645 38.22H38.6645C38.7445 39.48 39.8145 40.32 41.2845 40.32C42.8045 40.32 43.8845 39.44 43.8845 37.92V33.15ZM41.2645 36.54C40.6045 36.54 40.1245 36 40.1245 35.47C40.1245 34.77 40.6045 34.3 41.2645 34.3C41.6145 34.3 41.9645 34.41 42.2645 34.75V36.09C41.9645 36.43 41.6145 36.54 41.2645 36.54ZM47.0745 33.04C45.5445 33.04 44.4445 34.11 44.4445 35.57C44.4445 37.05 45.5445 38.15 47.0745 38.15C48.6045 38.15 49.7045 37.05 49.7045 35.57C49.7045 34.11 48.6045 33.04 47.0745 33.04ZM47.0845 36.75C46.4245 36.75 45.9845 36.23 45.9845 35.58C45.9845 34.95 46.4245 34.44 47.0845 34.44C47.7345 34.44 48.1745 34.95 48.1745 35.58C48.1745 36.23 47.7345 36.75 47.0845 36.75ZM53.4943 33.07C52.7743 33.07 52.2543 33.3 51.8243 33.67V33.15H50.2043V38H51.8243V35.23C52.2043 34.85 52.7043 34.64 53.4943 34.61V33.07ZM59.6959 33.15H57.9959L56.7359 36.14L55.3459 33.15H53.6259L55.9259 38.06L55.0059 40.24H56.7059L59.6959 33.15Z" fill="#2CFF2C"/>
<rect x="30" y="10" width="7.11111" height="7.11111" fill="#2CFF2C"/>
<rect x="30" y="18.8889" width="7.11111" height="7.11111" fill="#2CFF2C"/>
<rect x="38.8887" y="10" width="7.11111" height="7.11111" fill="#2CFF2C"/>
<rect x="38.8887" y="18.8889" width="7.11111" height="7.11111" fill="#2CFF2C"/>
<rect width="76" height="2" fill="#2CFF2C"/>
</svg>
