<svg width="14" height="13" viewBox="0 0 14 13" fill="none" xmlns="http://www.w3.org/2000/svg">
<path d="M10.15 0C8.932 0 7.763 0.573842 7 1.48065C6.237 0.573842 5.068 0 3.85 0C1.694 0 0 1.71444 0 3.89646C0 6.57439 2.38 8.7564 5.985 12.0719L6.32263 12.3806C6.70576 12.731 7.29322 12.7298 7.67502 12.3781L8.015 12.0648C11.62 8.7564 14 6.57439 14 3.89646C14 1.71444 12.306 0 10.15 0ZM7.07 11.0163L7 11.0872L6.93 11.0163C3.598 7.96294 1.4 5.94387 1.4 3.89646C1.4 2.47956 2.45 1.41689 3.85 1.41689C4.70295 1.41689 5.53837 1.85598 6.03378 2.52009C6.26867 2.83496 6.60846 3.08883 7.00129 3.08883C7.39631 3.08883 7.73741 2.83205 7.97331 2.5152C8.46573 1.85383 9.29914 1.41689 10.15 1.41689C11.55 1.41689 12.6 2.47956 12.6 3.89646C12.6 5.94387 10.402 7.96294 7.07 11.0163Z" fill="black"/>
</svg>
