<svg width="76" height="49" viewBox="0 0 76 49" fill="none" xmlns="http://www.w3.org/2000/svg">
<path d="M32.955 33C32.235 33 31.745 33.2 31.235 33.65C30.875 33.23 30.355 33 29.745 33C29.205 33 28.865 33.16 28.535 33.44V33.15H26.915V38H28.535V34.9C28.775 34.59 29.015 34.47 29.265 34.47C29.795 34.47 30.135 34.8 30.135 35.49V38H31.755V35.23C31.755 35.11 31.745 34.99 31.735 34.87C31.975 34.58 32.225 34.47 32.475 34.47C33.015 34.47 33.345 34.8 33.345 35.49V38H34.975V35.23C34.975 33.85 34.115 33 32.955 33ZM40.8273 33.15H39.2073V33.41C38.8473 33.18 38.4073 33.04 37.8773 33.04C36.5673 33.04 35.4673 34.12 35.4673 35.57C35.4673 37.01 36.5673 38.1 37.8773 38.1C38.4073 38.1 38.8473 37.96 39.2073 37.73V38H40.8273V33.15ZM38.1973 36.77C37.5373 36.77 37.0573 36.24 37.0573 35.57C37.0573 34.9 37.5373 34.36 38.1973 34.36C38.5573 34.36 38.9073 34.47 39.2073 34.82V36.32C38.9073 36.67 38.5573 36.77 38.1973 36.77ZM42.4675 32.39C42.9875 32.39 43.4175 32 43.4175 31.48C43.4175 30.95 42.9875 30.56 42.4675 30.56C41.9375 30.56 41.5175 30.95 41.5175 31.48C41.5175 32 41.9375 32.39 42.4675 32.39ZM43.2875 33.15H41.6675V38H43.2875V33.15ZM47.0805 33C46.5605 33 46.1305 33.17 45.7405 33.48V33.15H44.1205V38H45.7405V34.96C46.0205 34.64 46.3405 34.47 46.6405 34.47C47.1705 34.47 47.5205 34.8 47.5205 35.49V38H49.1505V35.23C49.1505 33.85 48.3105 33 47.0805 33Z" fill="#2CFF2C"/>
<path d="M38.5 9L30 15.3838V26H36.3307V19.0273H40.6693V26H47V15.3838L38.5 9Z" fill="#2CFF2C"/>
<rect width="76" height="2" fill="#2CFF2C"/>
</svg>
