<svg width="76" height="49" viewBox="0 0 76 49" fill="none" xmlns="http://www.w3.org/2000/svg">
<path d="M32.955 34C32.235 34 31.745 34.2 31.235 34.65C30.875 34.23 30.355 34 29.745 34C29.205 34 28.865 34.16 28.535 34.44V34.15H26.915V39H28.535V35.9C28.775 35.59 29.015 35.47 29.265 35.47C29.795 35.47 30.135 35.8 30.135 36.49V39H31.755V36.23C31.755 36.11 31.745 35.99 31.735 35.87C31.975 35.58 32.225 35.47 32.475 35.47C33.015 35.47 33.345 35.8 33.345 36.49V39H34.975V36.23C34.975 34.85 34.115 34 32.955 34ZM40.8273 34.15H39.2073V34.41C38.8473 34.18 38.4073 34.04 37.8773 34.04C36.5673 34.04 35.4673 35.12 35.4673 36.57C35.4673 38.01 36.5673 39.1 37.8773 39.1C38.4073 39.1 38.8473 38.96 39.2073 38.73V39H40.8273V34.15ZM38.1973 37.77C37.5373 37.77 37.0573 37.24 37.0573 36.57C37.0573 35.9 37.5373 35.36 38.1973 35.36C38.5573 35.36 38.9073 35.47 39.2073 35.82V37.32C38.9073 37.67 38.5573 37.77 38.1973 37.77ZM42.4675 33.39C42.9875 33.39 43.4175 33 43.4175 32.48C43.4175 31.95 42.9875 31.56 42.4675 31.56C41.9375 31.56 41.5175 31.95 41.5175 32.48C41.5175 33 41.9375 33.39 42.4675 33.39ZM43.2875 34.15H41.6675V39H43.2875V34.15ZM47.0805 34C46.5605 34 46.1305 34.17 45.7405 34.48V34.15H44.1205V39H45.7405V35.96C46.0205 35.64 46.3405 35.47 46.6405 35.47C47.1705 35.47 47.5205 35.8 47.5205 36.49V39H49.1505V36.23C49.1505 34.85 48.3105 34 47.0805 34Z" fill="white"/>
<path d="M38.5 10L30 16.3838V27H36.3307V20.0273H40.6693V27H47V16.3838L38.5 10ZM46.0039 26.0039H41.6654V19.0312H35.3346V26.0039H30.9961V16.8814L38.5 11.2457L46.0039 16.8814V26.0039Z" fill="white"/>
</svg>
