<svg width="76" height="49" viewBox="0 0 76 49" fill="none" xmlns="http://www.w3.org/2000/svg">
<path d="M21.7177 34C20.9977 34 20.5077 34.2 19.9977 34.65C19.6377 34.23 19.1177 34 18.5077 34C17.9677 34 17.6277 34.16 17.2977 34.44V34.15H15.6777V39H17.2977V35.9C17.5377 35.59 17.7777 35.47 18.0277 35.47C18.5577 35.47 18.8977 35.8 18.8977 36.49V39H20.5177V36.23C20.5177 36.11 20.5077 35.99 20.4977 35.87C20.7377 35.58 20.9877 35.47 21.2377 35.47C21.7777 35.47 22.1077 35.8 22.1077 36.49V39H23.7377V36.23C23.7377 34.85 22.8777 34 21.7177 34ZM29.9154 34.15H28.2154L26.9554 37.14L25.5654 34.15H23.8454L26.1454 39.06L25.2254 41.24H26.9254L29.9154 34.15ZM37.8392 34C37.1192 34 36.6292 34.2 36.1192 34.65C35.7592 34.23 35.2392 34 34.6292 34C34.0892 34 33.7492 34.16 33.4192 34.44V34.15H31.7992V39H33.4192V35.9C33.6592 35.59 33.8992 35.47 34.1492 35.47C34.6792 35.47 35.0192 35.8 35.0192 36.49V39H36.6392V36.23C36.6392 36.11 36.6292 35.99 36.6192 35.87C36.8592 35.58 37.1092 35.47 37.3592 35.47C37.8992 35.47 38.2292 35.8 38.2292 36.49V39H39.8592V36.23C39.8592 34.85 38.9992 34 37.8392 34ZM42.9815 34.04C41.4515 34.04 40.3515 35.11 40.3515 36.57C40.3515 38.05 41.4515 39.15 42.9815 39.15C44.5115 39.15 45.6115 38.05 45.6115 36.57C45.6115 35.11 44.5115 34.04 42.9815 34.04ZM42.9915 37.75C42.3315 37.75 41.8915 37.23 41.8915 36.58C41.8915 35.95 42.3315 35.44 42.9915 35.44C43.6415 35.44 44.0815 35.95 44.0815 36.58C44.0815 37.23 43.6415 37.75 42.9915 37.75ZM49.9092 37.54C49.5492 37.61 49.2792 37.66 49.0492 37.66C48.5692 37.66 48.2892 37.42 48.2892 36.93V35.54H49.9392V34.15H48.2892V32.5H46.6692V34.15H45.7192V35.54H46.6692V36.98C46.6692 38.29 47.4492 39.15 48.6192 39.15C49.0992 39.15 49.4592 39.11 50.0892 38.91L49.9092 37.54ZM51.4365 33.39C51.9565 33.39 52.3865 33 52.3865 32.48C52.3865 31.95 51.9565 31.56 51.4365 31.56C50.9065 31.56 50.4865 31.95 50.4865 32.48C50.4865 33 50.9065 33.39 51.4365 33.39ZM52.2565 34.15H50.6365V39H52.2565V34.15ZM53.9295 33.39C54.4495 33.39 54.8795 33 54.8795 32.48C54.8795 31.95 54.4495 31.56 53.9295 31.56C53.3995 31.56 52.9795 31.95 52.9795 32.48C52.9795 33 53.3995 33.39 53.9295 33.39ZM54.7495 34.15H53.1295V39H54.7495V34.15ZM60.7748 34.15H59.0648L57.9048 36.95L56.7448 34.15H55.0348L57.1348 39H58.6748L60.7748 34.15Z" fill="white"/>
<rect x="30.5" y="20.5" width="15" height="6" stroke="white"/>
<circle cx="38" cy="14" r="3.5" stroke="white"/>
</svg>
