<svg width="76" height="49" viewBox="0 0 76 49" fill="none" xmlns="http://www.w3.org/2000/svg">
<path d="M20.7177 33C19.9977 33 19.5077 33.2 18.9977 33.65C18.6377 33.23 18.1177 33 17.5077 33C16.9677 33 16.6277 33.16 16.2977 33.44V33.15H14.6777V38H16.2977V34.9C16.5377 34.59 16.7777 34.47 17.0277 34.47C17.5577 34.47 17.8977 34.8 17.8977 35.49V38H19.5177V35.23C19.5177 35.11 19.5077 34.99 19.4977 34.87C19.7377 34.58 19.9877 34.47 20.2377 34.47C20.7777 34.47 21.1077 34.8 21.1077 35.49V38H22.7377V35.23C22.7377 33.85 21.8777 33 20.7177 33ZM28.9154 33.15H27.2154L25.9554 36.14L24.5654 33.15H22.8454L25.1454 38.06L24.2254 40.24H25.9254L28.9154 33.15ZM36.8392 33C36.1192 33 35.6292 33.2 35.1192 33.65C34.7592 33.23 34.2392 33 33.6292 33C33.0892 33 32.7492 33.16 32.4192 33.44V33.15H30.7992V38H32.4192V34.9C32.6592 34.59 32.8992 34.47 33.1492 34.47C33.6792 34.47 34.0192 34.8 34.0192 35.49V38H35.6392V35.23C35.6392 35.11 35.6292 34.99 35.6192 34.87C35.8592 34.58 36.1092 34.47 36.3592 34.47C36.8992 34.47 37.2292 34.8 37.2292 35.49V38H38.8592V35.23C38.8592 33.85 37.9992 33 36.8392 33ZM41.9815 33.04C40.4515 33.04 39.3515 34.11 39.3515 35.57C39.3515 37.05 40.4515 38.15 41.9815 38.15C43.5115 38.15 44.6115 37.05 44.6115 35.57C44.6115 34.11 43.5115 33.04 41.9815 33.04ZM41.9915 36.75C41.3315 36.75 40.8915 36.23 40.8915 35.58C40.8915 34.95 41.3315 34.44 41.9915 34.44C42.6415 34.44 43.0815 34.95 43.0815 35.58C43.0815 36.23 42.6415 36.75 41.9915 36.75ZM48.9092 36.54C48.5492 36.61 48.2792 36.66 48.0492 36.66C47.5692 36.66 47.2892 36.42 47.2892 35.93V34.54H48.9392V33.15H47.2892V31.5H45.6692V33.15H44.7192V34.54H45.6692V35.98C45.6692 37.29 46.4492 38.15 47.6192 38.15C48.0992 38.15 48.4592 38.11 49.0892 37.91L48.9092 36.54ZM50.4365 32.39C50.9565 32.39 51.3865 32 51.3865 31.48C51.3865 30.95 50.9565 30.56 50.4365 30.56C49.9065 30.56 49.4865 30.95 49.4865 31.48C49.4865 32 49.9065 32.39 50.4365 32.39ZM51.2565 33.15H49.6365V38H51.2565V33.15ZM52.9295 32.39C53.4495 32.39 53.8795 32 53.8795 31.48C53.8795 30.95 53.4495 30.56 52.9295 30.56C52.3995 30.56 51.9795 30.95 51.9795 31.48C51.9795 32 52.3995 32.39 52.9295 32.39ZM53.7495 33.15H52.1295V38H53.7495V33.15ZM59.7748 33.15H58.0648L56.9048 35.95L55.7448 33.15H54.0348L56.1348 38H57.6748L59.7748 33.15Z" fill="#2CFF2C"/>
<rect width="76" height="2" fill="#2CFF2C"/>
<rect x="30" y="19" width="16" height="7" fill="#2CFF2C"/>
<circle cx="38" cy="13" r="4" fill="#2CFF2C"/>
</svg>
