<svg width="10" height="13" viewBox="0 0 10 13" fill="none" xmlns="http://www.w3.org/2000/svg">
<path d="M8.57143 0H1.42857C0.642857 0 0.00714302 0.65 0.00714302 1.44444L0.000471092 12.2379C0.000248588 12.5978 0.368996 12.8401 0.699275 12.697L5 10.8333L9.3012 12.6972C9.63135 12.8403 10 12.5982 10 12.2384V1.44444C10 0.65 9.35714 0 8.57143 0ZM8.57143 10.5266C8.57143 10.6711 8.42295 10.7679 8.29075 10.7096L5.08068 9.29445C5.02928 9.2718 4.97072 9.2718 4.91932 9.29445L1.70925 10.7096C1.57705 10.7679 1.42857 10.6711 1.42857 10.5266V1.94444C1.42857 1.6683 1.65243 1.44444 1.92857 1.44444H8.07143C8.34757 1.44444 8.57143 1.6683 8.57143 1.94444V10.5266Z" fill="black"/>
</svg>
